<?xml version="1.0" encoding="UTF-8" ?>
<!DOCTYPE svg PUBLIC "-//W3C//DTD SVG 1.1//EN" "http://www.w3.org/Graphics/SVG/1.1/DTD/svg11.dtd">
<svg width="660pt" height="779pt" viewBox="0 0 660 779" version="1.1" xmlns="http://www.w3.org/2000/svg">
<g id="#fa3c00ff">
<path fill="#fa3c00" opacity="1.00" d=" M 432.98 2.46 C 437.67 2.43 442.31 1.30 447.01 1.79 C 456.97 2.97 467.01 2.20 477.01 2.58 C 483.51 3.42 489.56 6.06 495.61 8.47 C 498.62 10.95 502.56 11.99 505.28 14.87 C 511.76 18.62 515.94 25.01 520.21 30.94 C 524.03 35.57 525.49 41.45 527.35 47.03 C 527.60 49.71 528.89 52.21 528.83 54.93 C 528.80 83.22 528.84 111.50 528.81 139.79 C 516.90 129.59 504.14 120.39 490.80 112.15 C 465.23 96.52 437.02 85.37 407.89 78.46 C 368.12 68.91 326.84 66.87 286.13 69.55 C 286.33 62.03 285.30 54.34 287.65 47.04 C 289.53 42.18 290.51 36.89 293.67 32.61 C 297.27 27.68 300.54 22.42 305.23 18.42 C 308.87 15.23 312.72 12.05 317.19 10.04 C 323.40 6.01 330.84 3.91 338.11 2.55 C 369.73 2.45 401.36 2.57 432.98 2.46 Z" />
<path fill="#fa3c00" opacity="1.00" d=" M 286.11 142.38 C 311.00 140.20 336.16 140.71 360.93 143.97 C 391.52 148.58 421.67 157.85 448.55 173.36 C 456.45 178.08 464.07 183.24 472.04 187.85 C 479.07 191.94 486.42 196.81 494.92 196.33 C 502.19 196.12 508.51 191.38 512.28 185.41 C 517.83 176.69 523.23 167.89 528.73 159.15 C 528.96 170.44 528.72 181.73 528.86 193.03 C 529.00 194.73 528.46 196.35 527.87 197.92 C 526.41 205.50 523.52 212.80 519.03 219.11 C 518.70 219.45 518.04 220.12 517.70 220.45 C 516.08 224.59 512.16 227.05 509.33 230.29 C 505.98 233.73 501.55 235.81 497.72 238.63 C 491.33 242.16 484.12 243.97 477.04 245.45 C 432.68 245.55 388.31 245.42 343.94 245.50 C 335.23 245.88 326.79 242.89 318.90 239.52 C 313.60 236.15 307.92 233.10 303.72 228.31 C 301.37 225.84 298.41 223.74 297.28 220.37 C 296.90 220.07 296.15 219.47 295.78 219.17 C 295.59 218.64 295.21 217.59 295.02 217.06 C 289.77 210.91 288.36 202.56 286.29 194.98 C 285.56 177.46 286.36 159.92 286.11 142.38 Z" />
</g>
<g id="#ffffffff">
<path fill="#ffffff" opacity="1.00" d=" M 286.13 69.55 C 326.84 66.87 368.12 68.91 407.89 78.46 C 437.02 85.37 465.23 96.52 490.80 112.15 C 504.14 120.39 516.90 129.59 528.81 139.79 C 531.39 142.05 533.96 144.32 536.51 146.61 C 533.91 150.79 531.26 154.93 528.73 159.15 C 523.23 167.89 517.83 176.69 512.28 185.41 C 508.51 191.38 502.19 196.12 494.92 196.33 C 486.42 196.81 479.07 191.94 472.04 187.85 C 464.07 183.24 456.45 178.08 448.55 173.36 C 421.67 157.85 391.52 148.58 360.93 143.97 C 336.16 140.71 311.00 140.20 286.11 142.38 C 245.66 146.01 205.73 159.77 173.08 184.22 C 143.69 206.00 121.25 236.40 107.24 270.05 C 89.14 312.82 84.05 360.07 86.52 406.14 C 88.25 438.05 94.18 469.96 106.37 499.61 C 118.56 529.84 137.05 557.75 161.47 579.48 C 190.00 605.24 226.08 621.97 263.74 629.06 C 286.85 633.52 310.52 634.10 333.98 633.02 C 361.61 631.83 389.24 627.64 415.55 618.97 C 433.01 613.23 449.87 605.74 466.09 597.13 C 465.98 576.33 466.06 555.53 466.05 534.74 C 466.05 510.17 466.05 485.61 466.04 461.05 C 436.72 461.04 407.40 461.03 378.08 461.05 C 373.08 460.95 367.91 461.51 363.07 459.95 C 356.76 457.94 351.97 451.75 352.04 445.05 C 351.93 429.03 352.04 413.02 352.00 397.00 C 415.38 397.00 478.77 397.00 542.15 397.00 C 542.19 441.18 542.10 485.36 542.20 529.54 C 542.17 531.20 542.12 532.86 542.15 534.54 C 542.23 567.91 542.21 601.28 542.16 634.65 C 504.47 661.96 461.09 681.33 415.55 691.01 C 390.41 696.50 364.77 699.47 339.09 700.73 C 311.69 702.03 284.12 702.04 256.91 698.16 C 210.95 691.93 166.46 675.02 128.14 648.86 C 88.68 621.94 56.71 584.49 35.50 541.75 C 26.17 522.94 18.49 503.29 12.95 483.03 C 2.98 446.97 -0.55 409.33 0.57 372.00 C 1.70 333.17 8.24 294.31 21.90 257.87 C 31.50 232.19 44.40 207.68 60.72 185.62 C 79.85 159.71 103.64 137.27 130.62 119.68 C 176.79 89.42 231.27 73.23 286.13 69.55 Z" />
</g>
<g id="#4faa5cff">
<path fill="#4faa5c" opacity="1.00" d=" M 338.17 325.91 C 345.24 323.46 352.26 319.82 359.95 320.10 C 365.64 320.30 371.32 319.91 377.01 319.91 C 391.99 320.67 406.98 319.45 421.96 320.13 C 447.27 319.93 472.60 318.95 497.88 320.37 C 503.66 321.43 509.07 323.74 514.49 325.91 C 516.75 327.49 519.10 328.95 521.68 329.98 C 525.15 333.31 529.48 335.62 532.52 339.46 C 535.99 344.02 539.74 348.45 542.41 353.57 C 544.24 357.01 544.99 360.89 546.33 364.52 C 546.70 367.37 547.97 370.07 547.84 372.98 C 547.76 419.33 547.91 465.68 547.76 512.03 C 546.48 518.00 544.86 524.01 542.20 529.54 C 542.10 485.36 542.19 441.18 542.15 397.00 C 478.77 397.00 415.38 397.00 352.00 397.00 C 352.04 413.02 351.93 429.03 352.04 445.05 C 351.97 451.75 356.76 457.94 363.07 459.95 C 367.91 461.51 373.08 460.95 378.08 461.05 C 407.40 461.03 436.72 461.04 466.04 461.05 C 466.05 485.61 466.05 510.17 466.05 534.74 C 453.72 537.30 442.02 543.13 433.01 551.98 C 429.62 555.28 427.11 559.32 424.30 563.09 C 405.21 562.66 386.10 562.93 367.01 562.93 C 359.26 563.72 351.54 562.27 344.30 559.55 C 337.80 557.89 332.56 553.58 327.06 549.98 C 322.47 545.66 317.70 541.37 314.57 535.81 C 309.67 529.56 307.69 521.76 305.67 514.24 C 305.07 512.20 305.10 510.05 305.11 507.95 C 305.34 500.61 304.45 493.29 305.09 485.96 C 305.02 452.98 305.26 419.97 304.97 386.99 C 305.66 380.34 304.16 373.49 306.12 367.00 C 308.01 359.44 310.61 351.93 315.64 345.83 C 318.66 341.50 322.21 337.66 325.99 333.98 C 328.21 333.00 329.97 331.33 331.85 329.85 C 333.95 328.52 336.35 327.66 338.17 325.91 Z" />
</g>
<g id="#6d00faff">
<path fill="#6d00fa" opacity="1.00" d=" M 164.05 405.94 C 185.05 405.65 206.06 405.30 227.06 406.21 C 231.79 406.86 236.38 408.38 240.76 410.26 C 242.87 411.19 245.40 411.44 246.90 413.39 C 248.60 414.27 250.32 415.11 252.06 415.92 C 255.66 419.35 260.20 421.68 263.28 425.71 C 267.09 431.22 271.89 436.20 274.24 442.60 C 276.01 447.59 277.49 452.74 278.33 457.96 C 278.39 504.98 278.29 552.00 278.36 599.01 C 276.68 603.38 275.85 608.04 274.25 612.46 C 271.57 618.45 267.71 623.85 263.74 629.06 C 226.08 621.97 190.00 605.24 161.47 579.48 C 137.05 557.75 118.56 529.84 106.37 499.61 C 94.18 469.96 88.25 438.05 86.52 406.14 C 102.01 405.76 117.49 406.15 132.98 406.11 C 143.33 405.31 153.69 406.62 164.05 405.94 Z" />
<path fill="#6d00fa" opacity="1.00" d=" M 35.50 541.75 C 56.71 584.49 88.68 621.94 128.14 648.86 C 118.76 648.87 109.39 648.94 100.01 648.89 C 93.18 649.29 86.19 649.32 79.63 647.12 C 74.24 645.23 68.24 644.07 63.98 639.99 C 63.45 639.80 62.41 639.43 61.88 639.24 C 61.57 638.85 60.93 638.09 60.61 637.70 C 56.63 636.22 54.25 632.51 51.18 629.80 C 48.16 627.10 46.24 623.48 44.09 620.12 C 40.41 615.77 39.10 610.04 37.36 604.75 C 36.78 601.83 35.55 599.01 35.51 596.01 C 35.47 577.92 35.57 559.84 35.50 541.75 Z" />
</g>
<g id="#00befaff">
<path fill="#00befa" opacity="1.00" d=" M 542.15 534.54 C 551.41 534.11 560.77 535.18 569.96 533.81 C 571.98 533.74 574.01 533.74 576.05 533.80 C 586.76 535.14 597.63 534.03 608.40 534.70 C 614.31 536.17 619.97 538.36 625.61 540.63 C 625.98 540.99 626.72 541.72 627.09 542.09 C 629.93 543.41 632.97 544.58 634.94 547.17 C 639.42 549.64 643.33 553.55 645.81 558.03 C 647.46 559.50 648.88 561.20 649.78 563.25 C 654.91 569.12 655.81 577.16 658.23 584.25 C 658.52 631.54 658.22 678.84 658.37 726.13 C 656.42 733.88 654.90 742.29 649.81 748.72 C 648.98 750.17 648.07 751.60 647.09 752.97 C 645.71 755.80 643.22 757.79 641.06 759.99 C 638.82 762.16 636.85 764.73 633.96 766.08 C 632.60 767.07 631.19 767.98 629.72 768.81 C 627.52 770.84 624.71 771.93 622.04 773.19 C 616.74 774.78 611.49 776.79 605.98 777.48 C 560.00 777.42 514.02 777.59 468.04 777.39 C 459.79 775.89 451.07 773.87 444.23 768.80 C 442.77 768.00 441.38 767.08 440.07 766.07 C 437.17 764.73 435.18 762.19 432.96 760.01 C 430.79 757.80 428.27 755.82 426.92 752.96 C 425.85 751.59 424.93 750.12 424.25 748.53 C 423.87 748.22 423.12 747.59 422.74 747.27 C 421.80 745.21 420.84 743.18 419.88 741.15 C 417.93 734.57 415.05 728.01 415.51 721.02 C 415.52 711.02 415.47 701.02 415.55 691.01 C 461.09 681.33 504.47 661.96 542.16 634.65 C 542.21 601.28 542.23 567.91 542.15 534.54 Z" />
<path fill="#00befa" opacity="1.00" d=" M 433.01 551.98 C 442.02 543.13 453.72 537.30 466.05 534.74 C 466.06 555.53 465.98 576.33 466.09 597.13 C 449.87 605.74 433.01 613.23 415.55 618.97 C 415.52 607.94 415.43 596.91 415.60 585.89 C 417.59 578.03 419.18 569.62 424.30 563.09 C 427.11 559.32 429.62 555.28 433.01 551.98 Z" />
</g>
</svg>
